<?xml version="1.0" encoding="UTF-8"?>
<!DOCTYPE svg PUBLIC "-//W3C//DTD SVG 1.1//EN" "http://www.w3.org/Graphics/SVG/1.1/DTD/svg11.dtd">
<svg xmlns="http://www.w3.org/2000/svg" version="1.1" width="415px" height="249px" style="shape-rendering:geometricPrecision; text-rendering:geometricPrecision; image-rendering:optimizeQuality; fill-rule:evenodd; clip-rule:evenodd" xmlns:xlink="http://www.w3.org/1999/xlink">
<g><path style="opacity:1" fill="#f04c23" d="M 220.5,112.5 C 220.5,112.833 220.5,113.167 220.5,113.5C 220.5,126.167 220.5,138.833 220.5,151.5C 218.833,151.5 217.167,151.5 215.5,151.5C 215.828,139.988 215.495,128.654 214.5,117.5C 212.192,115.529 209.858,113.529 207.5,111.5C 204.854,108.188 201.854,105.188 198.5,102.5C 193.146,107.188 188.146,112.188 183.5,117.5C 182.505,128.988 182.172,140.655 182.5,152.5C 180.5,152.5 178.5,152.5 176.5,152.5C 176.5,139.5 176.5,126.5 176.5,113.5C 182.298,108.203 187.965,102.703 193.5,97C 197.414,94.7392 201.081,95.0725 204.5,98C 209.405,103.41 214.738,108.243 220.5,112.5 Z"/></g>
<g><path style="opacity:0.557" fill="#992f2f" d="M 220.5,112.5 C 214.738,108.243 209.405,103.41 204.5,98C 201.081,95.0725 197.414,94.7392 193.5,97C 187.965,102.703 182.298,108.203 176.5,113.5C 175.833,114.833 175.167,116.167 174.5,117.5C 173.588,116.262 173.421,114.928 174,113.5C 180.469,108.032 186.636,102.199 192.5,96C 196.039,94.4961 199.705,94.1628 203.5,95C 209.446,100.776 215.112,106.609 220.5,112.5 Z"/></g>
<g><path style="opacity:0.118" fill="#9c302e" d="M 207.5,111.5 C 204.252,109.597 201.252,107.263 198.5,104.5C 193.813,108.855 189.146,113.188 184.5,117.5C 184.167,117.5 183.833,117.5 183.5,117.5C 188.146,112.188 193.146,107.188 198.5,102.5C 201.854,105.188 204.854,108.188 207.5,111.5 Z"/></g>
<g><path style="opacity:0.441" fill="#ad352d" d="M 61.5,114.5 C 50.3206,114.172 39.3206,114.505 28.5,115.5C 28.1667,115.5 27.8333,115.5 27.5,115.5C 32.7918,114.171 38.4585,113.504 44.5,113.5C 50.3435,113.501 56.0101,113.834 61.5,114.5 Z"/></g>
<g><path style="opacity:0.439" fill="#bb3a29" d="M 293.5,113.5 C 305.5,113.5 317.5,113.5 329.5,113.5C 329.5,114.167 329.5,114.833 329.5,115.5C 329.167,115.5 328.833,115.5 328.5,115.5C 317.167,114.167 305.833,114.167 294.5,115.5C 294.167,115.5 293.833,115.5 293.5,115.5C 293.5,114.833 293.5,114.167 293.5,113.5 Z"/></g>
<g><path style="opacity:0.635" fill="#b7392b" d="M 337.5,113.5 C 341.182,113.335 344.848,113.501 348.5,114C 349.056,114.383 349.389,114.883 349.5,115.5C 349.5,115.833 349.5,116.167 349.5,116.5C 345.95,114.327 342.283,113.993 338.5,115.5C 337.662,115.158 337.328,114.492 337.5,113.5 Z"/></g>
<g><path style="opacity:0.376" fill="#922d30" d="M 337.5,113.5 C 337.328,114.492 337.662,115.158 338.5,115.5C 338.833,116.167 339.167,116.833 339.5,117.5C 337.983,117.489 336.816,116.823 336,115.5C 335.472,114.184 335.972,113.517 337.5,113.5 Z"/></g>
<g><path style="opacity:0.475" fill="#a1322e" d="M 61.5,115.5 C 61.5,115.167 61.5,114.833 61.5,114.5C 65.0889,115.092 67.4222,117.092 68.5,120.5C 68.1667,120.5 67.8333,120.5 67.5,120.5C 66.1092,118.11 64.1092,116.443 61.5,115.5 Z"/></g>
<g><path style="opacity:1" fill="#ef4c23" d="M 141.5,113.5 C 148.937,113.221 156.27,113.888 163.5,115.5C 163.808,117.924 163.474,120.257 162.5,122.5C 155.645,120.498 148.645,119.998 141.5,121C 128.951,126.434 127.285,134.101 136.5,144C 145.24,147.443 153.906,147.276 162.5,143.5C 164.986,149.136 163.319,152.136 157.5,152.5C 151.108,152.751 144.775,152.418 138.5,151.5C 126.962,147.786 121.962,139.786 123.5,127.5C 127.469,120.195 133.469,115.528 141.5,113.5 Z"/></g>
<g><path style="opacity:0.067" fill="#9a2f2f" d="M 248.5,124.5 C 245.169,121.695 242.169,118.528 239.5,115C 237.527,114.505 235.527,114.338 233.5,114.5C 233.5,127.167 233.5,139.833 233.5,152.5C 235.5,152.5 237.5,152.5 239.5,152.5C 240.167,144.5 240.833,136.5 241.5,128.5C 242.338,128.842 242.672,129.508 242.5,130.5C 241.167,131.167 241.167,131.833 242.5,132.5C 242.795,139.226 242.462,145.892 241.5,152.5C 238.232,153.487 234.898,153.82 231.5,153.5C 231.5,140.167 231.5,126.833 231.5,113.5C 234.518,113.335 237.518,113.502 240.5,114C 243.548,117.29 246.215,120.79 248.5,124.5 Z"/></g>
<g><path style="opacity:1" fill="#ee4b23" d="M 61.5,115.5 C 64.1092,116.443 66.1092,118.11 67.5,120.5C 67.5,123.167 67.5,125.833 67.5,128.5C 66.3747,130.129 65.0414,131.629 63.5,133C 70.5399,134.384 73.0399,138.551 71,145.5C 69.9614,146.244 69.4614,147.244 69.5,148.5C 67.513,149.164 65.8463,150.331 64.5,152C 52.8381,152.5 41.1714,152.667 29.5,152.5C 29.5,140.167 29.5,127.833 29.5,115.5C 40.1667,115.5 50.8333,115.5 61.5,115.5 Z M 60.5,123.5 C 60.7135,125.144 60.3802,126.644 59.5,128C 52.1742,128.5 44.8409,128.666 37.5,128.5C 37.5,126.833 37.5,125.167 37.5,123.5C 45.1667,123.5 52.8333,123.5 60.5,123.5 Z M 60.5,138.5 C 63.7258,139.877 64.0591,141.543 61.5,143.5C 53.2452,144.634 44.9119,144.801 36.5,144C 37.4061,142.301 37.7394,140.467 37.5,138.5C 45.1667,138.5 52.8333,138.5 60.5,138.5 Z"/></g>
<g><path style="opacity:0.004" fill="#7c2633" d="M 79.5,113.5 C 79.5,126.5 79.5,139.5 79.5,152.5C 79.5,152.833 79.5,153.167 79.5,153.5C 78.7784,153.082 78.2784,152.416 78,151.5C 77.3333,139.833 77.3333,128.167 78,116.5C 78.2321,115.263 78.7321,114.263 79.5,113.5 Z"/></g>
<g><path style="opacity:0.828" fill="#b93a2a" d="M 79.5,113.5 C 91.5,113.5 103.5,113.5 115.5,113.5C 115.5,113.833 115.5,114.167 115.5,114.5C 103.833,114.5 92.1667,114.5 80.5,114.5C 80.5,127.167 80.5,139.833 80.5,152.5C 80.1667,152.5 79.8333,152.5 79.5,152.5C 79.5,139.5 79.5,126.5 79.5,113.5 Z"/></g>
<g><path style="opacity:1" fill="#ef4b23" d="M 115.5,114.5 C 115.5,116.833 115.5,119.167 115.5,121.5C 105.833,121.5 96.1667,121.5 86.5,121.5C 86.1936,124.385 86.5269,127.052 87.5,129.5C 93.979,130.491 100.646,130.824 107.5,130.5C 107.5,132.5 107.5,134.5 107.5,136.5C 100.5,136.5 93.5,136.5 86.5,136.5C 86.5,139.5 86.5,142.5 86.5,145.5C 96.1667,145.5 105.833,145.5 115.5,145.5C 115.5,147.833 115.5,150.167 115.5,152.5C 103.833,152.5 92.1667,152.5 80.5,152.5C 80.5,139.833 80.5,127.167 80.5,114.5C 92.1667,114.5 103.833,114.5 115.5,114.5 Z"/></g>
<g><path style="opacity:1" fill="#f04c23" d="M 248.5,124.5 C 249.08,126.749 250.413,128.415 252.5,129.5C 253.08,131.749 254.413,133.415 256.5,134.5C 256.369,135.376 256.702,136.043 257.5,136.5C 258.814,135.687 259.981,134.687 261,133.5C 266.073,127.272 270.907,120.938 275.5,114.5C 277.5,114.5 279.5,114.5 281.5,114.5C 281.5,127.167 281.5,139.833 281.5,152.5C 279.5,152.5 277.5,152.5 275.5,152.5C 275.831,144.14 275.498,135.807 274.5,127.5C 273.893,127.624 273.56,127.957 273.5,128.5C 273.167,129.167 272.833,129.833 272.5,130.5C 268.032,135.139 263.699,139.972 259.5,145C 257.16,145.748 255.16,145.248 253.5,143.5C 252.243,140.573 250.243,138.239 247.5,136.5C 246.581,133.911 244.914,131.911 242.5,130.5C 242.672,129.508 242.338,128.842 241.5,128.5C 241.44,127.957 241.107,127.624 240.5,127.5C 239.502,135.807 239.169,144.14 239.5,152.5C 237.5,152.5 235.5,152.5 233.5,152.5C 233.5,139.833 233.5,127.167 233.5,114.5C 235.527,114.338 237.527,114.505 239.5,115C 242.169,118.528 245.169,121.695 248.5,124.5 Z"/></g>
<g><path style="opacity:0.816" fill="#a2322e" d="M 275.5,114.5 C 277.895,113.186 280.395,113.186 283,114.5C 283.667,127.167 283.667,139.833 283,152.5C 280.619,153.435 278.119,153.768 275.5,153.5C 275.5,153.167 275.5,152.833 275.5,152.5C 277.5,152.5 279.5,152.5 281.5,152.5C 281.5,139.833 281.5,127.167 281.5,114.5C 279.5,114.5 277.5,114.5 275.5,114.5 Z"/></g>
<g><path style="opacity:1" fill="#ef4b23" d="M 328.5,115.5 C 328.5,117.167 328.5,118.833 328.5,120.5C 318.985,120.173 309.652,120.506 300.5,121.5C 300.5,124.167 300.5,126.833 300.5,129.5C 307.5,129.5 314.5,129.5 321.5,129.5C 321.5,131.833 321.5,134.167 321.5,136.5C 314.5,136.5 307.5,136.5 300.5,136.5C 300.5,139.5 300.5,142.5 300.5,145.5C 309.833,145.5 319.167,145.5 328.5,145.5C 328.5,147.5 328.5,149.5 328.5,151.5C 317.167,151.5 305.833,151.5 294.5,151.5C 294.5,139.5 294.5,127.5 294.5,115.5C 305.833,114.167 317.167,114.167 328.5,115.5 Z"/></g>
<g><path style="opacity:1" fill="#ef4b23" d="M 349.5,116.5 C 350.833,117.5 352.167,118.5 353.5,119.5C 354.167,119.5 354.5,119.833 354.5,120.5C 355.5,122.167 356.833,123.5 358.5,124.5C 359.833,125.167 360.833,126.167 361.5,127.5C 361.897,128.525 362.563,128.692 363.5,128C 366.036,125.295 368.703,122.795 371.5,120.5C 373.63,118.873 375.63,117.04 377.5,115C 380.554,114.179 383.554,114.345 386.5,115.5C 385.388,116.265 384.721,117.265 384.5,118.5C 379.226,122.105 374.559,126.438 370.5,131.5C 368.637,131.846 367.804,132.846 368,134.5C 371.369,138.037 374.869,141.371 378.5,144.5C 380.167,145.833 381.833,147.167 383.5,148.5C 384.167,148.5 384.5,148.833 384.5,149.5C 384.833,150.167 385.167,150.833 385.5,151.5C 382.696,152.638 379.696,152.805 376.5,152C 372.879,147.867 368.879,144.367 364.5,141.5C 363.167,138.833 361.833,138.833 360.5,141.5C 360.5,142.167 360.167,142.5 359.5,142.5C 355.43,145.06 351.764,148.227 348.5,152C 345.167,152.667 341.833,152.667 338.5,152C 344.605,145.979 350.605,139.979 356.5,134C 351.618,127.616 345.951,122.116 339.5,117.5C 339.167,116.833 338.833,116.167 338.5,115.5C 342.283,113.993 345.95,114.327 349.5,116.5 Z"/></g>
<g><path style="opacity:0.008" fill="#8d2b30" d="M 349.5,116.5 C 349.5,116.167 349.5,115.833 349.5,115.5C 351.833,115.833 353.167,117.167 353.5,119.5C 352.167,118.5 350.833,117.5 349.5,116.5 Z"/></g>
<g><path style="opacity:0.092" fill="#b0372c" d="M 384.5,118.5 C 384.721,117.265 385.388,116.265 386.5,115.5C 383.554,114.345 380.554,114.179 377.5,115C 375.63,117.04 373.63,118.873 371.5,120.5C 371.5,119.833 371.5,119.167 371.5,118.5C 373.094,117.017 374.76,115.517 376.5,114C 380.421,113.797 384.255,113.297 388,112.5C 389.153,115.848 387.986,117.848 384.5,118.5 Z"/></g>
<g><path style="opacity:0.89" fill="#d94426" d="M 61.5,114.5 C 61.5,114.833 61.5,115.167 61.5,115.5C 50.8333,115.5 40.1667,115.5 29.5,115.5C 29.5,127.833 29.5,140.167 29.5,152.5C 28.5048,140.345 28.1714,128.011 28.5,115.5C 39.3206,114.505 50.3206,114.172 61.5,114.5 Z"/></g>
<g><path style="opacity:0.294" fill="#be3b29" d="M 176.5,113.5 C 176.5,126.5 176.5,139.5 176.5,152.5C 178.5,152.5 180.5,152.5 182.5,152.5C 182.5,152.833 182.5,153.167 182.5,153.5C 179.833,153.5 177.167,153.5 174.5,153.5C 174.5,141.5 174.5,129.5 174.5,117.5C 175.167,116.167 175.833,114.833 176.5,113.5 Z"/></g>
<g><path style="opacity:0.043" fill="#952d2f" d="M 183.5,117.5 C 183.833,117.5 184.167,117.5 184.5,117.5C 185.146,129.88 184.479,141.88 182.5,153.5C 182.5,153.167 182.5,152.833 182.5,152.5C 182.172,140.655 182.505,128.988 183.5,117.5 Z"/></g>
<g><path style="opacity:0.542" fill="#922d30" d="M 207.5,111.5 C 209.858,113.529 212.192,115.529 214.5,117.5C 214.5,129.167 214.5,140.833 214.5,152.5C 216.833,152.5 219.167,152.5 221.5,152.5C 221.829,139.323 221.495,126.323 220.5,113.5C 220.5,113.167 220.5,112.833 220.5,112.5C 221.496,112.414 222.329,112.748 223,113.5C 223.5,126.829 223.667,140.163 223.5,153.5C 219.894,153.789 216.394,153.456 213,152.5C 212.18,140.924 212.346,129.424 213.5,118C 210.591,116.594 208.591,114.428 207.5,111.5 Z"/></g>
<g><path style="opacity:1" fill="#dc4425" d="M 220.5,113.5 C 221.495,126.323 221.829,139.323 221.5,152.5C 219.167,152.5 216.833,152.5 214.5,152.5C 214.5,140.833 214.5,129.167 214.5,117.5C 215.495,128.654 215.828,139.988 215.5,151.5C 217.167,151.5 218.833,151.5 220.5,151.5C 220.5,138.833 220.5,126.167 220.5,113.5 Z"/></g>
<g><path style="opacity:0.576" fill="#a1312e" d="M 141.5,113.5 C 133.469,115.528 127.469,120.195 123.5,127.5C 126.232,118.781 132.232,114.114 141.5,113.5 Z"/></g>
<g><path style="opacity:0.91" fill="#d84326" d="M 328.5,115.5 C 328.833,115.5 329.167,115.5 329.5,115.5C 329.5,117.5 329.5,119.5 329.5,121.5C 319.833,121.5 310.167,121.5 300.5,121.5C 309.652,120.506 318.985,120.173 328.5,120.5C 328.5,118.833 328.5,117.167 328.5,115.5 Z"/></g>
<g><path style="opacity:0.004" fill="#8b2b31" d="M 354.5,120.5 C 356.833,120.833 358.167,122.167 358.5,124.5C 356.833,123.5 355.5,122.167 354.5,120.5 Z"/></g>
<g><path style="opacity:0.458" fill="#962e30" d="M 60.5,123.5 C 52.8333,123.5 45.1667,123.5 37.5,123.5C 37.5,125.167 37.5,126.833 37.5,128.5C 36.8333,128.5 36.1667,128.5 35.5,128.5C 35.5,126.167 35.5,123.833 35.5,121.5C 43.5069,121.334 51.5069,121.5 59.5,122C 60.056,122.383 60.3893,122.883 60.5,123.5 Z"/></g>
<g><path style="opacity:0.373" fill="#a3332d" d="M 115.5,113.5 C 116.765,114.514 117.431,116.014 117.5,118C 117.431,119.986 116.765,121.486 115.5,122.5C 106.167,122.5 96.8333,122.5 87.5,122.5C 87.5,124.833 87.5,127.167 87.5,129.5C 86.5269,127.052 86.1936,124.385 86.5,121.5C 96.1667,121.5 105.833,121.5 115.5,121.5C 115.5,119.167 115.5,116.833 115.5,114.5C 115.5,114.167 115.5,113.833 115.5,113.5 Z"/></g>
<g><path style="opacity:0.372" fill="#9d312e" d="M 329.5,113.5 C 330.803,116.355 330.803,119.355 329.5,122.5C 320.5,123.833 311.5,123.833 302.5,122.5C 301.534,124.396 301.201,126.396 301.5,128.5C 308.5,128.5 315.5,128.5 322.5,128.5C 322.5,131.833 322.5,135.167 322.5,138.5C 315.5,138.5 308.5,138.5 301.5,138.5C 301.5,140.167 301.5,141.833 301.5,143.5C 310.839,143.334 320.173,143.5 329.5,144C 330.818,147.269 330.818,150.435 329.5,153.5C 329.5,153.167 329.5,152.833 329.5,152.5C 329.802,149.941 329.468,147.607 328.5,145.5C 319.167,145.5 309.833,145.5 300.5,145.5C 300.5,142.5 300.5,139.5 300.5,136.5C 307.5,136.5 314.5,136.5 321.5,136.5C 321.5,134.167 321.5,131.833 321.5,129.5C 314.5,129.5 307.5,129.5 300.5,129.5C 300.5,126.833 300.5,124.167 300.5,121.5C 310.167,121.5 319.833,121.5 329.5,121.5C 329.5,119.5 329.5,117.5 329.5,115.5C 329.5,114.833 329.5,114.167 329.5,113.5 Z"/></g>
<g><path style="opacity:0.663" fill="#a0312e" d="M 275.5,114.5 C 270.907,120.938 266.073,127.272 261,133.5C 259.981,134.687 258.814,135.687 257.5,136.5C 256.702,136.043 256.369,135.376 256.5,134.5C 258.017,134.489 259.184,133.823 260,132.5C 264.658,126.013 269.824,120.013 275.5,114.5 Z"/></g>
<g><path style="opacity:0.412" fill="#932d2f" d="M 371.5,118.5 C 371.5,119.167 371.5,119.833 371.5,120.5C 368.703,122.795 366.036,125.295 363.5,128C 362.563,128.692 361.897,128.525 361.5,127.5C 364.833,124.5 368.167,121.5 371.5,118.5 Z"/></g>
<g><path style="opacity:0.102" fill="#a0312e" d="M 384.5,118.5 C 380.441,123.562 375.774,127.895 370.5,131.5C 374.559,126.438 379.226,122.105 384.5,118.5 Z"/></g>
<g><path style="opacity:0.809" fill="#b4382c" d="M 67.5,120.5 C 67.8333,120.5 68.1667,120.5 68.5,120.5C 69.8333,123.167 69.8333,125.833 68.5,128.5C 68.1667,128.5 67.8333,128.5 67.5,128.5C 67.5,125.833 67.5,123.167 67.5,120.5 Z"/></g>
<g><path style="opacity:0.325" fill="#ad362d" d="M 60.5,123.5 C 61.807,125.223 61.807,127.057 60.5,129C 51.9896,129.823 43.6563,129.657 35.5,128.5C 36.1667,128.5 36.8333,128.5 37.5,128.5C 44.8409,128.666 52.1742,128.5 59.5,128C 60.3802,126.644 60.7135,125.144 60.5,123.5 Z"/></g>
<g><path style="opacity:0.31" fill="#912c30" d="M 248.5,124.5 C 250.587,125.585 251.92,127.251 252.5,129.5C 250.413,128.415 249.08,126.749 248.5,124.5 Z"/></g>
<g><path style="opacity:0.796" fill="#cc4128" d="M 87.5,129.5 C 94.5,129.5 101.5,129.5 108.5,129.5C 108.802,132.059 108.468,134.393 107.5,136.5C 107.5,134.5 107.5,132.5 107.5,130.5C 100.646,130.824 93.979,130.491 87.5,129.5 Z"/></g>
<g><path style="opacity:0.966" fill="#c93f28" d="M 241.5,128.5 C 240.833,136.5 240.167,144.5 239.5,152.5C 239.169,144.14 239.502,135.807 240.5,127.5C 241.107,127.624 241.44,127.957 241.5,128.5 Z"/></g>
<g><path style="opacity:0.12" fill="#8f2c31" d="M 273.5,128.5 C 274.167,136.5 274.833,144.5 275.5,152.5C 275.5,152.833 275.5,153.167 275.5,153.5C 273.847,146.054 272.847,138.388 272.5,130.5C 272.833,129.833 273.167,129.167 273.5,128.5 Z"/></g>
<g><path style="opacity:0.753" fill="#b4382b" d="M 273.5,128.5 C 273.56,127.957 273.893,127.624 274.5,127.5C 275.498,135.807 275.831,144.14 275.5,152.5C 274.833,144.5 274.167,136.5 273.5,128.5 Z"/></g>
<g><path style="opacity:0.388" fill="#962e2f" d="M 67.5,128.5 C 67.8333,128.5 68.1667,128.5 68.5,128.5C 68.4894,130.017 67.8228,131.184 66.5,132C 74.1854,136.533 75.1854,142.033 69.5,148.5C 69.4614,147.244 69.9614,146.244 71,145.5C 73.0399,138.551 70.5399,134.384 63.5,133C 65.0414,131.629 66.3747,130.129 67.5,128.5 Z"/></g>
<g><path style="opacity:0.039" fill="#952d30" d="M 242.5,130.5 C 244.914,131.911 246.581,133.911 247.5,136.5C 245.833,135.167 244.167,133.833 242.5,132.5C 242.5,131.833 242.5,131.167 242.5,130.5 Z"/></g>
<g><path style="opacity:0.49" fill="#972e30" d="M 252.5,129.5 C 254.587,130.585 255.92,132.251 256.5,134.5C 254.413,133.415 253.08,131.749 252.5,129.5 Z"/></g>
<g><path style="opacity:0.016" fill="#a9342d" d="M 370.5,131.5 C 370.586,132.496 370.252,133.329 369.5,134C 372.704,137.036 375.704,140.203 378.5,143.5C 378.5,143.833 378.5,144.167 378.5,144.5C 374.869,141.371 371.369,138.037 368,134.5C 367.804,132.846 368.637,131.846 370.5,131.5 Z"/></g>
<g><path style="opacity:0.454" fill="#a4332e" d="M 35.5,137.5 C 43.9901,136.343 52.6567,136.176 61.5,137C 65.4671,139.966 65.4671,142.799 61.5,145.5C 61.5,144.833 61.5,144.167 61.5,143.5C 64.0591,141.543 63.7258,139.877 60.5,138.5C 52.3501,137.507 44.0168,137.174 35.5,137.5 Z"/></g>
<g><path style="opacity:0.067" fill="#99302f" d="M 115.5,122.5 C 106.682,123.493 97.6822,123.827 88.5,123.5C 88.5,125.167 88.5,126.833 88.5,128.5C 95.5,128.5 102.5,128.5 109.5,128.5C 109.784,131.777 109.451,134.943 108.5,138C 101.842,138.5 95.175,138.666 88.5,138.5C 88.5,140.167 88.5,141.833 88.5,143.5C 97.6822,143.173 106.682,143.507 115.5,144.5C 106.167,144.5 96.8333,144.5 87.5,144.5C 87.5,142.167 87.5,139.833 87.5,137.5C 94.3543,137.824 101.021,137.491 107.5,136.5C 108.468,134.393 108.802,132.059 108.5,129.5C 101.5,129.5 94.5,129.5 87.5,129.5C 87.5,127.167 87.5,124.833 87.5,122.5C 96.8333,122.5 106.167,122.5 115.5,122.5 Z"/></g>
<g><path style="opacity:0.059" fill="#962e30" d="M 247.5,136.5 C 250.243,138.239 252.243,140.573 253.5,143.5C 250.757,141.761 248.757,139.427 247.5,136.5 Z"/></g>
<g><path style="opacity:0.145" fill="#9e312f" d="M 364.5,141.5 C 363.167,141.5 361.833,141.5 360.5,141.5C 361.833,138.833 363.167,138.833 364.5,141.5 Z"/></g>
<g><path style="opacity:0.016" fill="#952e2f" d="M 272.5,130.5 C 268.786,136.393 264.453,141.893 259.5,147C 256.128,148.122 254.128,146.955 253.5,143.5C 255.16,145.248 257.16,145.748 259.5,145C 263.699,139.972 268.032,135.139 272.5,130.5 Z"/></g>
<g><path style="opacity:0.215" fill="#952e2f" d="M 35.5,137.5 C 44.0168,137.174 52.3501,137.507 60.5,138.5C 52.8333,138.5 45.1667,138.5 37.5,138.5C 37.7394,140.467 37.4061,142.301 36.5,144C 44.9119,144.801 53.2452,144.634 61.5,143.5C 61.5,144.167 61.5,144.833 61.5,145.5C 52.8333,145.5 44.1667,145.5 35.5,145.5C 35.5,142.833 35.5,140.167 35.5,137.5 Z"/></g>
<g><path style="opacity:0.008" fill="#892a31" d="M 378.5,144.5 C 378.5,144.167 378.5,143.833 378.5,143.5C 381.167,144.167 382.833,145.833 383.5,148.5C 381.833,147.167 380.167,145.833 378.5,144.5 Z"/></g>
<g><path style="opacity:0.546" fill="#a3322e" d="M 141.5,113.5 C 148.712,112.183 156.046,112.35 163.5,114C 164.791,117.455 164.791,120.955 163.5,124.5C 155.206,121.003 146.873,120.836 138.5,124C 128.666,132.19 129.666,138.857 141.5,144C 149.428,145.129 157.095,144.296 164.5,141.5C 164.665,144.85 164.498,148.183 164,151.5C 162.103,153.016 159.936,153.683 157.5,153.5C 157.5,153.167 157.5,152.833 157.5,152.5C 163.319,152.136 164.986,149.136 162.5,143.5C 153.906,147.276 145.24,147.443 136.5,144C 127.285,134.101 128.951,126.434 141.5,121C 148.645,119.998 155.645,120.498 162.5,122.5C 163.474,120.257 163.808,117.924 163.5,115.5C 156.27,113.888 148.937,113.221 141.5,113.5 Z"/></g>
<g><path style="opacity:0.235" fill="#a9342d" d="M 364.5,141.5 C 368.879,144.367 372.879,147.867 376.5,152C 379.696,152.805 382.696,152.638 385.5,151.5C 386.338,151.842 386.672,152.508 386.5,153.5C 382.818,153.665 379.152,153.499 375.5,153C 371.602,149.271 367.935,145.438 364.5,141.5 Z"/></g>
<g><path style="opacity:0.051" fill="#8a2a31" d="M 384.5,149.5 C 386.017,149.511 387.184,150.177 388,151.5C 388.528,152.816 388.028,153.483 386.5,153.5C 386.672,152.508 386.338,151.842 385.5,151.5C 385.167,150.833 384.833,150.167 384.5,149.5 Z"/></g>
<g><path style="opacity:0.039" fill="#962e2f" d="M 123.5,127.5 C 121.962,139.786 126.962,147.786 138.5,151.5C 138.5,152.167 138.5,152.833 138.5,153.5C 125.091,149.323 120.091,140.657 123.5,127.5 Z"/></g>
<g><path style="opacity:1" fill="#e14725" d="M 293.5,115.5 C 293.833,115.5 294.167,115.5 294.5,115.5C 294.5,127.5 294.5,139.5 294.5,151.5C 305.833,151.5 317.167,151.5 328.5,151.5C 328.5,149.5 328.5,147.5 328.5,145.5C 329.468,147.607 329.802,149.941 329.5,152.5C 317.5,152.5 305.5,152.5 293.5,152.5C 293.5,140.167 293.5,127.833 293.5,115.5 Z"/></g>
<g><path style="opacity:0.459" fill="#b6392b" d="M 27.5,115.5 C 27.8333,115.5 28.1667,115.5 28.5,115.5C 28.1714,128.011 28.5048,140.345 29.5,152.5C 41.1714,152.667 52.8381,152.5 64.5,152C 65.8463,150.331 67.513,149.164 69.5,148.5C 69.0844,150.752 67.751,152.252 65.5,153C 52.8377,153.5 40.1711,153.667 27.5,153.5C 27.5,140.833 27.5,128.167 27.5,115.5 Z"/></g>
<g><path style="opacity:0.46" fill="#ab352c" d="M 107.5,136.5 C 101.021,137.491 94.3543,137.824 87.5,137.5C 87.5,139.833 87.5,142.167 87.5,144.5C 96.8333,144.5 106.167,144.5 115.5,144.5C 117.388,146.988 118.055,149.988 117.5,153.5C 104.833,153.5 92.1667,153.5 79.5,153.5C 79.5,153.167 79.5,152.833 79.5,152.5C 79.8333,152.5 80.1667,152.5 80.5,152.5C 92.1667,152.5 103.833,152.5 115.5,152.5C 115.5,150.167 115.5,147.833 115.5,145.5C 105.833,145.5 96.1667,145.5 86.5,145.5C 86.5,142.5 86.5,139.5 86.5,136.5C 93.5,136.5 100.5,136.5 107.5,136.5 Z"/></g>
<g><path style="opacity:0.604" fill="#c33d29" d="M 138.5,151.5 C 144.775,152.418 151.108,152.751 157.5,152.5C 157.5,152.833 157.5,153.167 157.5,153.5C 151.167,153.5 144.833,153.5 138.5,153.5C 138.5,152.833 138.5,152.167 138.5,151.5 Z"/></g>
<g><path style="opacity:0.46" fill="#a7342d" d="M 293.5,113.5 C 293.5,114.167 293.5,114.833 293.5,115.5C 293.5,127.833 293.5,140.167 293.5,152.5C 305.5,152.5 317.5,152.5 329.5,152.5C 329.5,152.833 329.5,153.167 329.5,153.5C 317.149,153.832 304.815,153.499 292.5,152.5C 292.291,151.914 291.957,151.414 291.5,151C 292.158,138.402 292.824,125.902 293.5,113.5 Z"/></g>
<g><path style="opacity:0.118" fill="#a0312e" d="M 339.5,117.5 C 345.951,122.116 351.618,127.616 356.5,134C 350.605,139.979 344.605,145.979 338.5,152C 341.833,152.667 345.167,152.667 348.5,152C 351.764,148.227 355.43,145.06 359.5,142.5C 356.371,146.131 353.037,149.631 349.5,153C 345.129,153.828 340.795,153.661 336.5,152.5C 342.35,145.816 348.683,139.65 355.5,134C 349.936,128.605 344.603,123.105 339.5,117.5 Z"/></g>
</svg>
